<svg width="16" height="10" xmlns="http://www.w3.org/2000/svg" xmlns:xlink="http://www.w3.org/1999/xlink">
  <g transform="translate(0 -3)" fill="none" fill-rule="evenodd">
    <mask id="eye_mask_b" fill="#fff">
      <path d="M8 3.52C2.751 3.52 0 7.387 0 8c0 .613 2.751 4.48 8 4.48 5.248 0 8-3.867 8-4.48 0-.613-2.752-4.48-8-4.48zm0 7.926c-1.964 0-3.556-1.543-3.556-3.446 0-1.903 1.592-3.446 3.556-3.446S11.556 6.097 11.556 8c0 1.903-1.592 3.446-3.556 3.446zM9.778 8c0 .952-.796 1.723-1.778 1.723S6.222 8.952 6.222 8c0-.952.796-1.723 1.778-1.723.53 0-.326 1.365 0 1.723.277.304 1.778-.437 1.778 0z" />
    </mask>
    <g mask="url(#eye_mask_b)" fill="#696969">
      <path d="M-8-8h32v32H-8z"/>
    </g>
  </g>
</svg>