<svg width="16" height="9" xmlns="http://www.w3.org/2000/svg" xmlns:xlink="http://www.w3.org/1999/xlink">
  <g transform="translate(0 -4)" fill="none" fill-rule="evenodd">
    <mask id="eye_shut_b" fill="#fff">
    <path id="eye_shut_a" d="M15.716 4.88a.568.568 0 0 0-.784.21 8.56 8.56 0 0 1-1.214 1.63l-.094.094a7.86 7.86 0 0 1-2.465 1.687l-.112.057c-.934.398-1.942.588-2.97.607h-.112a7.751 7.751 0 0 1-3.007-.607l-.112-.057a7.86 7.86 0 0 1-2.465-1.687l-.093-.094a8.433 8.433 0 0 1-1.214-1.612C.905 4.824.569 4.73.289 4.9a.574.574 0 0 0-.205.796c.317.55.69 1.08 1.12 1.554L.42 8.634a.596.596 0 0 0 .205.815.587.587 0 0 0 .803-.227l.635-1.119a8.795 8.795 0 0 0 1.924 1.29l-.373 1.364c-.075.322.093.645.41.72a.579.579 0 0 0 .71-.417l.318-1.232c.765.266 1.55.417 2.372.474v1.27c0 .323.261.588.579.588a.586.586 0 0 0 .579-.588v-1.27a9.647 9.647 0 0 0 2.315-.455l.318 1.214a.579.579 0 0 0 .56.436c.056 0 .094 0 .15-.02a.576.576 0 0 0 .41-.72l-.354-1.365a8.795 8.795 0 0 0 1.923-1.289l.635 1.1a.587.587 0 0 0 .804.227c.28-.17.373-.53.205-.815l-.766-1.365a8.53 8.53 0 0 0 1.12-1.573.55.55 0 0 0-.186-.796z" />
    </mask>
    <g mask="url(#eye_shut_b)" fill="#696969">
      <path d="M-8-8h32v32H-8z"/>
    </g>
  </g>
</svg>