<svg viewBox="0 0 14 16" xmlns="http://www.w3.org/2000/svg" xmlns:xlink="http://www.w3.org/1999/xlink">
    <g fill="none" fill-rule="evenodd">
        <mask id="delete-b" fill="#fff">
            <path d="M6 0h2c.963 0 1.91.911 1.994 1.864L10 2v1h3.077c.35.003.923.036.923.5s-.572.497-.923.5H12v11c0 .464-.431.929-.893.993L11 16H3c-.464 0-.929-.431-.993-.893L2 15V4H1c-.667 0-1-.167-1-.5 0-.464.793-.497.97-.5H4V2C4 1.045 4.903.09 5.863.006L6 0h2zm5 4H3v11h8V4zM5.5 5c.249 0 .455.223.493.516l.007.1v6.769c0 .34-.224.615-.5.615-.249 0-.455-.223-.493-.516l-.007-.1V5.616c0-.34.224-.615.5-.615zm3 0c.276 0 .5.276.5.615v6.77c0 .34-.224.615-.5.615s-.5-.276-.5-.615v-6.77c0-.34.224-.615.5-.615zM8 1H6c-.464 0-.929.431-.993.893L5 2v1h4V2c0-.5-.5-1-1-1z" id="delete-a" />
        </mask>
        <g mask="url(#delete-b)" fill="currentColor">
            <path d="M0 0h14v16H0z"/>
        </g>
    </g>
</svg>